# xmcd CD database file generated by MAGIX-FreeDB-MP3_Maker_15 v2.0beta1
# 
# Track frame offsets:
#      150
#      11394
#      21578
#      31578
#      42231
#      53691
#      64842
#      75840
#      88782
#      98974
#      111924
#      122876
#      133546
#      142663
#      155340
#      166792
#      175733
#      186595
#      197435
#      208838
# 
# Disc length: 2927 seconds
# 
# Revision: 1 
# Processed by: cddbd v1.5.2PL0 Copyright (c) Steve Scherf et al.
# Submitted via: MAGIX-FreeDB-MP3_Maker_15 v2.0beta1
# 
DISCID=010b6d14
DTITLE=Patsy Cline - The Great Country Collection - 7 of 8  [Patsy Cline]
DYEAR=2002
DGENRE=Country
TTITLE0=Patsy Cline - Walking After Midnight
TTITLE1=Patsy Cline - Pick Me Up On Your Way Down
TTITLE2=Patsy Cline - Three Cigarettes In An Ashtray
TTITLE3=Patsy Cline - Honky Tonk Merry-Go-Round
TTITLE4=Patsy Cline - I've Loved And Lost Again
TTITLE5=Patsy Cline - Just Out Of Reach
TTITLE6=Patsy Cline - Hidin' Out
TTITLE7=Patsy Cline - If I Could See The World (Through The Eyes Of A Child)
TTITLE8=Patsy Cline - Walking Dream
TTITLE9=Patsy Cline - Life's A Railway To Heaven
TTITLE10=Patsy Cline - Stop, Look And Listen
TTITLE11=Patsy Cline - I Cried All The Way To The Altar
TTITLE12=Patsy Cline - Try Again
TTITLE13=Patsy Cline - Yes, I Understand
TTITLE14=Patsy Cline - In Care Of The Blues
TTITLE15=Patsy Cline - I Love You Honey
TTITLE16=Patsy Cline - Stop The World (And Let Me Off)
TTITLE17=Patsy Cline - I Can't Forget You
TTITLE18=Patsy Cline - Let The Teardrops Fall
TTITLE19=Patsy Cline - I Can See An Angel
EXTD=YEAR: 2002
EXTT0=
EXTT1=
EXTT2=
EXTT3=
EXTT4=
EXTT5=
EXTT6=
EXTT7=
EXTT8=
EXTT9=
EXTT10=
EXTT11=
EXTT12=
EXTT13=
EXTT14=
EXTT15=
EXTT16=
EXTT17=
EXTT18=
EXTT19=
PLAYORDER=
